<?xml version="1.0" standalone="no"?>
<!DOCTYPE svg PUBLIC "-//W3C//DTD SVG 20010904//EN"
 "http://www.w3.org/TR/2001/REC-SVG-20010904/DTD/svg10.dtd">
<svg version="1.0" xmlns="http://www.w3.org/2000/svg"
 width="1009.000000pt" height="327.000000pt" viewBox="0 0 1009.000000 327.000000"
 preserveAspectRatio="xMidYMid meet">
<metadata>
Created by potrace 1.16, written by Peter Selinger 2001-2019
</metadata>
<g transform="translate(0.000000,327.000000) scale(0.100000,-0.100000)"
fill="#000000" stroke="none">
<path d="M730 3225 c0 -14 -160 -664 -355 -1445 -279 -1118 -355 -1434 -355
-1484 0 -119 74 -223 190 -267 47 -18 83 -19 519 -19 533 0 536 0 620 76 l48
43 29 -30 c16 -17 52 -43 79 -57 l50 -27 629 -3 c722 -3 698 -5 789 78 31 28
62 68 71 90 17 43 766 3029 766 3055 0 13 -45 15 -350 15 l-349 0 -10 -37 c-6
-21 -155 -617 -332 -1326 l-321 -1287 -239 0 c-185 0 -239 3 -239 13 0 6 148
603 329 1325 l329 1312 -359 0 -359 0 0 -25 c0 -18 -569 -2318 -641 -2587
l-10 -38 -234 0 c-129 0 -235 2 -235 5 0 6 648 2600 656 2628 5 16 -16 17
-355 17 l-361 0 0 -25z"/>
<path d="M4050 3225 c0 -14 -86 -368 -191 -787 -170 -679 -190 -770 -187 -828
6 -105 66 -197 156 -242 46 -23 52 -23 467 -28 l420 -5 5 -68 5 -67 215 215
215 215 -215 215 -215 215 -5 -67 -5 -68 -137 -3 c-76 -1 -138 0 -138 3 0 6
318 1279 326 1308 5 16 -16 17 -355 17 l-361 0 0 -25z"/>
<path d="M5076 2623 l-157 -627 178 -178 178 -178 -297 -298 -297 -297 -46
-185 c-25 -102 -50 -202 -56 -222 l-10 -38 -229 0 c-127 0 -230 3 -230 6 0 6
57 237 66 267 5 16 -17 17 -355 17 l-361 0 0 -25 c0 -13 -27 -133 -60 -266
-72 -289 -75 -336 -29 -427 34 -70 85 -115 159 -143 48 -18 87 -19 738 -19
587 0 696 2 740 15 61 19 150 96 175 152 17 38 767 3030 767 3058 0 13 -46 15
-359 15 l-359 0 -156 -627z"/>
<path d="M6311 3213 c-6 -21 -186 -742 -401 -1603 -215 -861 -393 -1573 -396
-1582 -5 -17 17 -18 370 -18 l375 0 10 38 c6 20 73 289 150 597 l140 560 -207
208 -207 207 308 308 309 309 52 209 52 209 217 3 c138 1 225 -1 237 -8 11 -6
23 -22 26 -35 4 -16 -21 -135 -67 -322 -81 -325 -88 -341 -165 -362 -22 -6
-123 -11 -231 -11 l-193 0 0 77 0 78 -222 -222 -223 -223 215 -215 c118 -118
218 -215 222 -215 5 0 8 32 8 70 l0 70 375 0 375 0 92 30 c105 34 168 76 227
150 37 47 81 142 81 176 0 9 68 285 150 614 168 673 169 678 119 778 -32 65
-66 99 -133 135 l-41 22 -807 3 -807 2 -10 -37z"/>
<path d="M8619 3236 c-86 -30 -167 -110 -205 -201 -7 -18 -162 -628 -344
-1355 -259 -1037 -330 -1334 -330 -1384 0 -121 81 -231 198 -270 42 -14 129
-16 687 -14 l639 3 66 265 c37 146 70 277 73 292 l7 28 -450 0 c-247 0 -450 2
-450 5 0 3 41 169 91 370 l91 365 304 0 304 0 145 290 145 290 -375 0 c-206 0
-375 2 -375 5 0 3 41 169 91 370 l91 365 452 2 451 3 67 265 c37 146 70 277
73 293 l7 27 -709 0 c-553 -1 -716 -4 -744 -14z"/>
</g>
</svg>
